PathFileType	4	(X/Y/Z)	1H_rest_slow_right.trc
DataRate	CameraRate	NumFrames	NumMarkers	Units	OrigDataRate	OrigDataStartFrame	OrigNumFrames
250.00	250.00	21	18	mm	250.00	7944	21182
Frame#	Time	c7	r_should	l_should	clavicle	r_upa	r_elb_l	r_elb_m	r_low	r_wri_l	r_wri_m	r_met	l_upa	l_elb_l	l_elb_m	l_low	l_wri_l	l_wri_m	l_met
	X1	Y1	Z1	X2	Y2	Z2	X3	Y3	Z3	X4	Y4	Z4	X5	Y5	Z5	X6	Y6	Z6	X7	Y7	Z7	X8	Y8	Z8	X9	Y9	Z9	X10	Y10	Z10	X11	Y11	Z11	X12	Y12	Z12	X13	Y13	Z13	X14	Y14	Z14	X15	Y15	Z15	X16	Y16	Z16	X17	Y17	Z17	X18	Y18	Z18
7944	31.77200	610.33563	1418.80652	290.93771	671.69312	1362.00793	427.54395	640.29010	1378.30408	114.19736	745.99890	1288.62195	257.92719	690.71002	1163.17285	504.03540	685.07721	1095.54883	522.82599	684.22034	1043.18884	443.42642	815.41498	1134.30518	486.75024	864.31232	1172.58044	450.39957	894.15308	1104.97412	444.24118	938.72284	1201.86047	485.30832	629.22931	1193.12927	30.28835	639.35315	1085.62854	14.57236	589.16345	1047.78101	77.58003	680.10571	922.54639	15.26397	710.14166	850.08777	49.15313	646.49536	829.60767	18.89828	741.32666	764.27563	18.10786
7945	31.77600	610.24780	1418.79675	290.92188	671.58466	1362.00305	427.52179	640.18774	1378.29883	114.18330	745.93628	1288.65381	257.90048	690.73523	1163.21680	504.03107	685.14783	1095.63489	522.83875	684.44385	1043.21375	443.39340	815.21124	1134.84888	486.74329	863.59705	1174.02625	450.62762	894.06714	1105.89062	444.22043	938.52338	1203.86243	485.29416	629.15576	1193.09998	30.29861	639.33173	1085.61572	14.59074	589.15845	1047.75916	77.61800	680.06323	922.59167	15.28485	710.21619	850.16083	49.16802	646.59076	829.59296	18.95389	741.46704	764.32922	18.14671
7946	31.78000	610.15594	1418.78528	290.91943	671.47186	1361.99939	427.49857	640.08221	1378.29688	114.17365	745.87238	1288.68640	257.87903	690.75958	1163.26331	504.02289	685.21136	1095.71838	522.85254	684.66187	1043.23987	443.36008	815.00317	1135.41089	486.74402	863.30658	1174.67529	450.59766	893.97943	1106.77979	444.21060	938.18878	1204.92957	485.31052	629.08203	1193.07251	30.30461	639.30835	1085.60059	14.61015	589.15448	1047.73157	77.65070	680.01709	922.63428	15.31017	710.28839	850.23401	49.18706	646.68439	829.57483	19.00422	741.60016	764.37769	18.18759
7947	31.78400	610.05542	1418.77747	290.91403	671.36389	1361.99207	427.48163	639.97437	1378.29712	114.16376	745.80634	1288.72009	257.85477	690.77661	1163.31152	504.02063	685.26715	1095.79822	522.86102	684.88513	1043.26819	443.32413	814.78632	1135.95984	486.73749	863.28064	1174.81519	450.39761	893.89459	1107.68481	444.20154	937.84546	1205.55420	485.37402	629.01318	1193.04846	30.31362	639.27966	1085.58813	14.62602	589.15509	1047.70154	77.67885	679.97760	922.67853	15.32874	710.35742	850.30463	49.20373	646.78204	829.56500	19.05946	741.73181	764.42212	18.23555
7948	31.78800	609.95038	1418.76746	290.90536	671.26178	1361.97913	427.46194	639.85870	1378.29395	114.15061	745.74091	1288.75061	257.82706	690.78680	1163.35645	504.02264	685.31006	1095.87122	522.85803	685.11249	1043.29236	443.28674	814.55701	1136.47864	486.73190	862.99969	1175.41382	450.35196	893.79938	1108.58533	444.17697	937.41681	1206.47400	485.38065	628.94666	1193.03271	30.32431	639.25275	1085.57300	14.63905	589.15063	1047.66968	77.70770	680.22534	922.56732	15.43200	710.42590	850.37537	49.22137	646.87860	829.55676	19.11373	741.86499	764.46283	18.28006
7949	31.79200	609.84662	1418.75903	290.90002	671.15845	1361.96094	427.44229	639.73840	1378.28833	114.13047	745.67517	1288.78430	257.79294	690.79498	1163.39832	504.01105	685.35065	1095.95129	522.85693	685.33337	1043.31799	443.23361	814.33044	1136.98865	486.72086	862.65967	1176.13062	450.35049	893.68488	1109.47156	444.13309	936.94745	1207.53943	485.34070	628.88525	1193.00879	30.32951	639.22607	1085.55457	14.65468	589.14703	1047.64001	77.73763	680.85052	922.25006	15.63828	710.49377	850.44525	49.23590	646.96893	829.55109	19.16428	741.99176	764.50116	18.32832
7950	31.79600	609.74207	1418.74695	290.89282	671.05969	1361.94360	427.41254	639.60736	1378.28027	114.11563	745.60797	1288.81409	257.75208	690.80292	1163.40125	504.22067	685.38477	1096.02979	522.85529	685.55487	1043.34241	443.17114	814.18079	1137.59302	486.92633	862.28619	1176.87732	450.35681	893.56531	1110.35718	444.07431	936.45782	1208.71533	485.26105	628.81696	1192.98438	30.34156	639.19794	1085.53638	14.66382	589.15088	1047.60486	77.76535	681.04260	922.16870	15.71688	710.56055	850.50812	49.24641	647.06262	829.54218	19.21084	742.11072	764.53741	18.37282
7951	31.80000	609.64050	1418.73242	290.88834	670.97534	1361.92395	427.38147	639.47449	1378.26709	114.10523	745.54657	1288.84106	257.71078	690.83325	1163.36230	504.70233	685.42102	1096.10498	522.85693	685.78064	1043.36243	443.11633	814.11469	1138.31042	487.41422	861.89941	1177.61658	450.36966	893.44775	1111.23987	444.01279	935.97491	1209.68237	485.25531	628.74756	1192.96313	30.35004	639.16602	1085.51697	14.67556	589.15143	1047.56921	77.79103	681.12347	922.14240	15.76405	710.62720	850.56879	49.25755	647.15106	829.53333	19.25345	742.23083	764.56763	18.41713
7952	31.80400	609.54816	1418.72119	290.88852	670.89600	1361.89893	427.35382	639.33875	1378.25452	114.10121	745.48547	1288.86963	257.67230	690.87408	1163.41101	504.80765	685.45251	1096.17737	522.87488	686.00641	1043.38196	443.07141	813.94141	1138.88171	487.54480	861.50476	1178.35852	450.38571	893.32202	1112.11401	443.95578	935.48492	1210.51477	485.29504	628.67596	1192.93164	30.35327	639.13373	1085.49304	14.69141	589.14130	1047.53589	77.82240	681.17096	922.13483	15.80119	710.69141	850.62372	49.27384	647.23407	829.52533	19.29815	742.35480	764.59729	18.46707
7953	31.80800	609.45844	1418.71069	290.89346	670.82941	1361.87573	427.32657	639.19940	1378.24866	114.09264	745.42865	1288.89734	257.64035	690.92401	1163.47412	504.82642	685.47693	1096.24915	522.89526	686.23621	1043.40137	443.02127	813.75165	1139.42761	487.58249	861.10248	1179.10498	450.40530	893.27338	1112.86890	444.01523	934.98041	1211.47363	485.30530	628.60260	1192.91174	30.36016	639.09747	1085.47717	14.70698	589.13324	1047.50598	77.85201	681.21411	922.14008	15.83420	710.83606	850.55884	49.35909	647.31030	829.51544	19.34570	742.47656	764.62616	18.52667
7954	31.81200	609.37537	1418.69763	290.89661	670.76611	1361.85449	427.29831	639.05432	1378.24390	114.08183	745.37219	1288.92261	257.60251	690.96100	1163.53369	504.82477	685.49957	1096.32141	522.91486	686.44391	1043.41174	442.97342	813.53387	1139.96887	487.60062	860.69781	1179.83911	450.41977	893.35559	1113.43152	444.22168	934.45886	1212.46838	485.29547	628.52283	1192.89734	30.37106	639.05670	1085.46191	14.73055	589.13208	1047.47632	77.88300	681.25659	922.14679	15.86785	711.08600	850.33392	49.52438	647.38708	829.50897	19.38955	742.59143	764.65723	18.57999
7955	31.81600	609.29285	1418.68298	290.89954	670.70477	1361.83154	427.27277	638.90979	1378.23889	114.06746	745.31244	1288.94910	257.56342	690.99890	1163.58826	504.82483	685.52313	1096.38684	522.94281	686.65881	1043.42786	442.92639	813.28540	1140.51562	487.60999	860.28882	1180.58691	450.42984	893.26349	1114.22522	444.25122	933.91565	1213.55676	485.25623	628.44342	1192.87732	30.38623	639.01947	1085.44458	14.75317	589.13086	1047.43958	77.92027	681.29553	922.15723	15.89769	711.20178	850.29346	49.59076	647.45453	829.50745	19.43049	742.70782	764.68976	18.62888
7956	31.82000	609.21216	1418.67383	290.90274	670.63715	1361.80811	427.24088	638.76917	1378.23169	114.06244	745.25238	1288.96863	257.52457	691.04382	1163.64990	504.82596	685.54535	1096.45642	522.96930	686.86865	1043.45203	442.87427	813.04010	1141.05530	487.61722	859.87274	1181.32544	450.62442	893.11218	1115.08777	444.22046	933.32281	1214.81641	485.18265	628.36194	1192.85596	30.39563	638.97913	1085.42920	14.77490	589.12646	1047.40381	77.95663	681.33228	922.16357	15.92653	711.28455	850.30017	49.63081	647.52435	829.50507	19.46806	742.81781	764.72546	18.67676
7957	31.82400	609.13074	1418.66248	290.90195	670.56635	1361.78760	427.21045	638.63538	1378.22253	114.05883	745.19049	1288.99219	257.48407	691.09021	1163.71704	504.83267	685.56592	1096.52905	522.98700	687.05902	1043.47620	442.83139	812.79156	1141.59521	487.61880	859.45020	1182.08667	451.04654	892.94531	1115.95715	444.17172	932.77325	1215.86597	485.16299	628.27600	1192.83411	30.40424	638.93292	1085.41223	14.80297	589.12231	1047.37634	77.98951	681.36261	922.16980	15.95359	711.36157	850.32172	49.66161	647.58820	829.50452	19.50244	742.92303	764.75903	18.71900
7958	31.82800	609.04730	1418.64795	290.89725	670.48376	1361.76575	427.18277	638.50092	1378.21570	114.05193	745.12909	1289.01379	257.44217	691.13995	1163.78381	504.83905	685.57251	1096.60803	522.99890	687.23297	1043.50000	442.78949	812.51166	1142.13306	487.61160	859.01630	1182.86316	451.11826	892.78619	1116.82166	444.14114	932.21729	1216.85559	485.15866	628.18427	1192.81348	30.41904	638.88031	1085.39343	14.82621	589.11658	1047.34375	78.02319	681.38629	922.17505	15.98246	711.43317	850.34424	49.68894	647.65082	829.50177	19.54086	743.02539	764.79297	18.75433
7959	31.83200	608.95502	1418.63721	290.88916	670.38879	1361.74719	427.15634	638.36688	1378.20813	114.04498	745.07013	1289.03772	257.40506	691.19446	1163.85229	504.83496	685.57605	1096.68701	523.00659	687.41571	1043.53589	442.75095	812.22339	1142.67188	487.59323	858.57263	1183.57153	451.12900	892.60266	1117.68848	444.10059	931.62207	1217.89893	485.16211	628.08075	1192.79199	30.43168	638.82159	1085.37183	14.84865	589.10406	1047.30505	78.06128	681.40472	922.17499	16.00845	711.49664	850.36694	49.70813	647.70856	829.49628	19.58103	743.12079	764.82690	18.78498
7960	31.83600	608.85724	1418.62195	290.87894	670.28705	1361.73584	427.13263	638.23944	1378.20129	114.03875	745.00970	1289.05652	257.37656	691.24158	1163.91870	504.81976	685.57440	1096.76318	523.01166	687.58606	1043.56506	442.70322	811.94836	1143.21228	487.58218	858.11743	1184.25696	451.09744	892.41016	1118.55457	444.06519	930.98840	1219.02783	485.18164	627.96777	1192.77612	30.44111	638.75690	1085.35254	14.86313	589.08588	1047.26807	78.09760	681.41766	922.17731	16.03239	711.55310	850.38361	49.73130	647.75623	829.49030	19.61922	743.21216	764.85968	18.80267
7961	31.84000	608.75836	1418.59985	290.87085	670.17999	1361.71826	427.11313	638.11670	1378.18835	114.03619	744.94751	1289.07520	257.34924	691.28741	1163.98145	504.79321	685.56232	1096.84497	523.01733	687.74817	1043.59058	442.65161	811.68329	1143.75366	487.57324	857.67090	1184.94641	451.03287	892.22083	1119.42090	444.03012	930.39789	1220.04468	485.18164	627.85486	1192.75366	30.45518	638.68939	1085.32812	14.87786	589.05255	1047.23792	78.13052	681.42706	922.17511	16.05594	711.60626	850.40594	49.74848	647.80249	829.47711	19.65193	743.29388	764.89160	18.81367
7962	31.84400	608.66010	1418.58472	290.86642	670.05975	1361.70227	427.09482	637.99500	1378.17444	114.02776	744.87958	1289.09741	257.32205	691.33722	1164.05444	504.76288	685.55396	1096.92126	523.01624	687.91333	1043.61340	442.58749	811.39813	1144.29907	487.55408	857.17297	1185.63232	451.05359	892.01788	1120.27856	443.99704	929.71490	1221.16602	485.24084	627.74323	1192.72595	30.46181	638.62018	1085.30969	14.89111	589.02594	1047.20422	78.16035	681.42712	922.17682	16.07875	711.65710	850.42413	49.76993	647.84460	829.46899	19.69292	743.36719	764.92291	18.82228
7963	31.84800	608.55591	1418.57251	290.86340	669.93701	1361.68738	427.06741	637.87292	1378.17371	114.02000	744.81390	1289.12659	257.29236	691.38849	1164.13135	504.74210	685.53741	1096.99036	523.00793	688.07971	1043.63831	442.51511	811.10034	1144.84143	487.53729	856.63507	1186.31042	451.17377	891.81055	1121.14441	443.97546	928.87451	1222.47351	485.36655	627.62610	1192.70898	30.46672	638.54443	1085.29871	14.90404	588.99054	1047.17200	78.19304	681.42554	922.18707	16.09449	711.70038	850.44562	49.78765	647.88031	829.46649	19.73291	743.43701	764.95868	18.83060
7964	31.85200	608.44769	1418.55859	290.85803	669.81287	1361.67407	427.04565	637.75806	1378.16980	114.01166	744.74084	1289.15723	257.26236	691.42462	1164.21033	504.71939	685.52100	1097.05334	522.99658	688.23883	1043.66882	442.44000	810.80634	1145.38684	487.52682	856.14197	1187.00281	451.20609	891.60797	1122.00781	443.96228	928.22601	1223.53369	485.41919	627.51208	1192.69348	30.47258	638.47070	1085.28784	14.91510	588.95679	1047.13416	78.22470	681.42542	922.19446	16.10998	711.73578	850.47089	49.79990	647.91016	829.46167	19.77915	743.49774	764.99640	18.83941
